<mxfile host="app.diagrams.net" modified="2023-11-24T09:11:54.041Z" agent="Mozilla/5.0 (Windows NT 10.0; Win64; x64) AppleWebKit/537.36 (KHTML, like Gecko) Chrome/119.0.0.0 Safari/537.36" etag="fnjpdcAkeZQHqt-rZUCR" version="22.1.3" type="github" pages="2">
  <diagram name="第 1 页" id="-PQ7a87coccsCbGEvKLt">
    <mxGraphModel dx="933" dy="478" grid="1" gridSize="10" guides="1" tooltips="1" connect="1" arrows="1" fold="1" page="1" pageScale="1" pageWidth="827" pageHeight="1169" math="0" shadow="0">
      <root>
        <mxCell id="0" />
        <mxCell id="1" parent="0" />
        <mxCell id="opbxaaCzsm2ePwEEzuPa-1" value="" style="edgeStyle=orthogonalEdgeStyle;rounded=0;orthogonalLoop=1;jettySize=auto;html=1;labelBackgroundColor=#F1FAEE;strokeColor=#457B9D;fontColor=#1D3557;" parent="1" source="opbxaaCzsm2ePwEEzuPa-2" target="opbxaaCzsm2ePwEEzuPa-3" edge="1">
          <mxGeometry relative="1" as="geometry" />
        </mxCell>
        <mxCell id="opbxaaCzsm2ePwEEzuPa-2" value="U-Boot&lt;br&gt;(Booting from eMMC/Nor Flash/NVMe/UFS)" style="whiteSpace=wrap;html=1;rounded=1;fillColor=#A8DADC;strokeColor=#457B9D;fontColor=#1D3557;" parent="1" vertex="1">
          <mxGeometry x="120" y="160" width="240" height="60" as="geometry" />
        </mxCell>
        <mxCell id="opbxaaCzsm2ePwEEzuPa-3" value="Kernel" style="whiteSpace=wrap;html=1;rounded=1;fillColor=#A8DADC;strokeColor=#457B9D;fontColor=#1D3557;" parent="1" vertex="1">
          <mxGeometry x="440" y="160" width="120" height="60" as="geometry" />
        </mxCell>
      </root>
    </mxGraphModel>
  </diagram>
  <diagram id="ccAh5NVS0nDfYOqDc0Op" name="第 2 页">
    <mxGraphModel dx="933" dy="478" grid="1" gridSize="10" guides="1" tooltips="1" connect="1" arrows="1" fold="1" page="1" pageScale="1" pageWidth="827" pageHeight="1169" math="0" shadow="0">
      <root>
        <mxCell id="0" />
        <mxCell id="1" parent="0" />
        <mxCell id="G2CNxKj8aoLRywjaQsUw-1" value="" style="edgeStyle=orthogonalEdgeStyle;rounded=0;orthogonalLoop=1;jettySize=auto;html=1;labelBackgroundColor=#F1FAEE;strokeColor=#457B9D;fontColor=#1D3557;" edge="1" parent="1" source="G2CNxKj8aoLRywjaQsUw-2" target="G2CNxKj8aoLRywjaQsUw-3">
          <mxGeometry relative="1" as="geometry" />
        </mxCell>
        <mxCell id="G2CNxKj8aoLRywjaQsUw-5" value="" style="edgeStyle=orthogonalEdgeStyle;rounded=0;orthogonalLoop=1;jettySize=auto;html=1;endArrow=none;endFill=0;startArrow=classicThin;startFill=1;" edge="1" parent="1" source="G2CNxKj8aoLRywjaQsUw-2" target="G2CNxKj8aoLRywjaQsUw-4">
          <mxGeometry relative="1" as="geometry" />
        </mxCell>
        <mxCell id="G2CNxKj8aoLRywjaQsUw-2" value="U-Boot" style="whiteSpace=wrap;html=1;rounded=1;fillColor=#A8DADC;strokeColor=#457B9D;fontColor=#1D3557;" vertex="1" parent="1">
          <mxGeometry x="280" y="240" width="120" height="60" as="geometry" />
        </mxCell>
        <mxCell id="G2CNxKj8aoLRywjaQsUw-3" value="Kernel" style="whiteSpace=wrap;html=1;rounded=1;fillColor=#A8DADC;strokeColor=#457B9D;fontColor=#1D3557;" vertex="1" parent="1">
          <mxGeometry x="480" y="240" width="120" height="60" as="geometry" />
        </mxCell>
        <mxCell id="G2CNxKj8aoLRywjaQsUw-4" value="ATF" style="whiteSpace=wrap;html=1;fillColor=#A8DADC;strokeColor=#457B9D;fontColor=#1D3557;rounded=1;" vertex="1" parent="1">
          <mxGeometry x="80" y="240" width="120" height="60" as="geometry" />
        </mxCell>
      </root>
    </mxGraphModel>
  </diagram>
</mxfile>
